<svg width="21" height="24" viewBox="0 0 21 24" fill="none" xmlns="http://www.w3.org/2000/svg">
<path d="M20.5599 18.7033C20.1828 19.5418 19.7366 20.3136 19.2195 21.0232C18.5147 21.9906 17.9376 22.6602 17.4928 23.032C16.8034 23.6424 16.0647 23.955 15.2737 23.9728C14.7058 23.9728 14.021 23.8172 13.2239 23.5017C12.4241 23.1876 11.6891 23.032 11.0171 23.032C10.3123 23.032 9.55634 23.1876 8.7478 23.5017C7.93802 23.8172 7.28567 23.9816 6.78691 23.9979C6.02838 24.0291 5.27231 23.7076 4.51763 23.032C4.03595 22.6276 3.43347 21.9343 2.71172 20.9521C1.93734 19.9032 1.30069 18.687 0.801927 17.3004C0.267771 15.8026 0 14.3523 0 12.9482C0 11.3398 0.361029 9.95259 1.08416 8.79011C1.65248 7.85636 2.40855 7.11979 3.35483 6.57906C4.30111 6.03834 5.32356 5.76279 6.42465 5.74516C7.02714 5.74516 7.81721 5.92456 8.79904 6.27715C9.7781 6.63091 10.4067 6.81031 10.6824 6.81031C10.8884 6.81031 11.5868 6.60054 12.7707 6.18233C13.8902 5.79449 14.8351 5.63391 15.6092 5.69716C17.7067 5.86012 19.2826 6.6561 20.3306 8.09013C18.4546 9.18432 17.5267 10.7169 17.5451 12.6829C17.5621 14.2142 18.1392 15.4886 19.2733 16.5004C19.7873 16.97 20.3614 17.333 21 17.5907C20.8615 17.9774 20.7153 18.3477 20.5599 18.7033ZM15.7492 0.480137C15.7492 1.68041 15.2937 2.8011 14.3858 3.8384C13.29 5.07155 11.9647 5.78412 10.5275 5.67168C10.5092 5.52769 10.4986 5.37614 10.4986 5.21688C10.4986 4.06462 11.0197 2.83147 11.945 1.82321C12.407 1.3127 12.9946 0.888228 13.7071 0.549615C14.4181 0.216055 15.0906 0.031589 15.7231 0C15.7415 0.160458 15.7492 0.320926 15.7492 0.480121V0.480137Z" fill="#333333"/>
</svg>
