<svg width="45" height="18" viewBox="0 0 45 18" fill="none" xmlns="http://www.w3.org/2000/svg">
<path d="M40.7897 11.2123L41.1939 4.86033L37.6572 11.2123H40.7897ZM40.5202 15.0335H35.5183L33.9184 17.9497H29.4386L36.0741 5.44693H34.3563L37.5561 0.73743H45L44.8821 17.933H40.2844L40.5202 15.0335ZM5.60816 14.1453H7.84805C8.60591 14.1453 9.19536 13.9777 9.59955 13.6425C10.0206 13.3073 10.3069 12.8547 10.4921 12.3017C10.6606 11.7821 10.6269 11.3631 10.4248 11.0447C10.2227 10.7263 9.73428 10.5754 8.95958 10.5754H6.73653L5.60816 14.1453ZM7.78069 7.2067H9.68376C10.3743 7.2067 10.8963 7.05587 11.25 6.77095C11.6037 6.46927 11.8731 6.05028 12.0415 5.49721C12.21 4.97765 12.1931 4.57542 12.0247 4.2905C11.8394 4.00559 11.4184 3.85475 10.7616 3.85475H8.82485L7.78069 7.2067ZM33.6153 2.31285L30.6344 0V1.13966C30.2302 1.02235 29.8428 0.938547 29.4386 0.871508C16.7571 -1.4581 12.0415 17.8659 26.424 18C26.4409 18 26.9124 17.2961 27.064 17.0782C27.6703 16.1899 27.7545 16.0391 29.3881 13.3575C18.3065 18.1173 21.1022 -0.268156 31.6448 6.35196C33.0595 3.78771 32.5879 4.44134 33.6153 2.31285ZM5.50711 0.284916H13.7257C15.0898 0.284916 16.0161 0.703911 16.4876 1.55866C16.9592 2.39665 16.9929 3.45251 16.6055 4.69274C16.2856 5.73184 15.7466 6.63687 14.9888 7.3743C14.4835 7.87709 13.8436 8.26257 13.0857 8.54749C14.012 8.84916 14.6014 9.38547 14.854 10.1229C15.1067 10.8603 15.0561 11.7989 14.7025 12.9218C14.4162 13.8436 13.9951 14.6648 13.4225 15.3855C12.8499 16.1229 12.21 16.6927 11.4689 17.1285C11.0142 17.3966 10.4079 17.581 9.61639 17.6983C8.57223 17.8659 7.89858 17.933 7.57859 17.933H0L4.0756 4.91061L2.66093 4.87709L5.50711 0.284916Z" fill="#73CAFF"/>
</svg>
