<svg width="24" height="23" viewBox="0 0 24 23" fill="none" xmlns="http://www.w3.org/2000/svg">
<mask id="path-1-inside-1" fill="white">
<path fill-rule="evenodd" clip-rule="evenodd" d="M17 1.16667C17 0.614387 17.4477 0.166672 18 0.166672C18.5523 0.166672 19 0.614387 19 1.16667V2.16667H20C22.2091 2.16667 24 3.95753 24 6.16667V10.1667V18.1667C24 20.3758 22.2091 22.1667 20 22.1667H4C1.79086 22.1667 0 20.3758 0 18.1667V10.1667V6.16667C0 3.95753 1.79086 2.16667 4 2.16667H4.99998V1.16667C4.99998 0.614387 5.44769 0.166672 5.99998 0.166672C6.55226 0.166672 6.99998 0.614387 6.99998 1.16667V2.16667H17V1.16667ZM4.99998 4.16667V5.16667C4.99998 5.71896 5.44769 6.16667 5.99998 6.16667C6.55226 6.16667 6.99998 5.71896 6.99998 5.16667V4.16667H17V5.16667C17 5.71896 17.4477 6.16667 18 6.16667C18.5523 6.16667 19 5.71896 19 5.16667V4.16667H20C21.1046 4.16667 22 5.0621 22 6.16667V9.16667H2V6.16667C2 5.0621 2.89543 4.16667 4 4.16667H4.99998ZM22 11.1667V18.1667C22 19.2712 21.1046 20.1667 20 20.1667H4C2.89543 20.1667 2 19.2712 2 18.1667V11.1667H22Z"/>
</mask>
<path fill-rule="evenodd" clip-rule="evenodd" d="M17 1.16667C17 0.614387 17.4477 0.166672 18 0.166672C18.5523 0.166672 19 0.614387 19 1.16667V2.16667H20C22.2091 2.16667 24 3.95753 24 6.16667V10.1667V18.1667C24 20.3758 22.2091 22.1667 20 22.1667H4C1.79086 22.1667 0 20.3758 0 18.1667V10.1667V6.16667C0 3.95753 1.79086 2.16667 4 2.16667H4.99998V1.16667C4.99998 0.614387 5.44769 0.166672 5.99998 0.166672C6.55226 0.166672 6.99998 0.614387 6.99998 1.16667V2.16667H17V1.16667ZM4.99998 4.16667V5.16667C4.99998 5.71896 5.44769 6.16667 5.99998 6.16667C6.55226 6.16667 6.99998 5.71896 6.99998 5.16667V4.16667H17V5.16667C17 5.71896 17.4477 6.16667 18 6.16667C18.5523 6.16667 19 5.71896 19 5.16667V4.16667H20C21.1046 4.16667 22 5.0621 22 6.16667V9.16667H2V6.16667C2 5.0621 2.89543 4.16667 4 4.16667H4.99998ZM22 11.1667V18.1667C22 19.2712 21.1046 20.1667 20 20.1667H4C2.89543 20.1667 2 19.2712 2 18.1667V11.1667H22Z" fill="#ADADAD"/>
<path d="M19 2.16667H18.95V2.21667H19V2.16667ZM4.99998 2.16667V2.21667H5.04998V2.16667H4.99998ZM6.99998 2.16667H6.94998V2.21667H6.99998V2.16667ZM17 2.16667V2.21667H17.05V2.16667H17ZM4.99998 4.16667H5.04998V4.11667H4.99998V4.16667ZM6.99998 4.16667V4.11667H6.94998V4.16667H6.99998ZM17 4.16667H17.05V4.11667H17V4.16667ZM19 4.16667V4.11667H18.95V4.16667H19ZM22 9.16667V9.21667H22.05V9.16667H22ZM2 9.16667H1.95V9.21667H2V9.16667ZM22 11.1667H22.05V11.1167H22V11.1667ZM2 11.1667V11.1167H1.95V11.1667H2ZM18 0.116672C17.4201 0.116672 16.95 0.586773 16.95 1.16667H17.05C17.05 0.642001 17.4753 0.216672 18 0.216672V0.116672ZM19.05 1.16667C19.05 0.586773 18.5799 0.116672 18 0.116672V0.216672C18.5246 0.216672 18.95 0.642001 18.95 1.16667H19.05ZM19.05 2.16667V1.16667H18.95V2.16667H19.05ZM20 2.11667H19V2.21667H20V2.11667ZM24.05 6.16667C24.05 3.92991 22.2368 2.11667 20 2.11667V2.21667C22.1815 2.21667 23.95 3.98514 23.95 6.16667H24.05ZM24.05 10.1667V6.16667H23.95V10.1667H24.05ZM24.05 18.1667V10.1667H23.95V18.1667H24.05ZM20 22.2167C22.2368 22.2167 24.05 20.4034 24.05 18.1667H23.95C23.95 20.3482 22.1815 22.1167 20 22.1167V22.2167ZM4 22.2167H20V22.1167H4V22.2167ZM-0.05 18.1667C-0.05 20.4034 1.76325 22.2167 4 22.2167V22.1167C1.81848 22.1167 0.05 20.3482 0.05 18.1667H-0.05ZM-0.05 10.1667V18.1667H0.05V10.1667H-0.05ZM-0.05 6.16667V10.1667H0.05V6.16667H-0.05ZM4 2.11667C1.76325 2.11667 -0.05 3.92991 -0.05 6.16667H0.05C0.05 3.98514 1.81848 2.21667 4 2.21667V2.11667ZM4.99998 2.11667H4V2.21667H4.99998V2.11667ZM5.04998 2.16667V1.16667H4.94998V2.16667H5.04998ZM5.04998 1.16667C5.04998 0.642001 5.47531 0.216672 5.99998 0.216672V0.116672C5.42008 0.116672 4.94998 0.586773 4.94998 1.16667H5.04998ZM5.99998 0.216672C6.52465 0.216672 6.94998 0.642001 6.94998 1.16667H7.04998C7.04998 0.586773 6.57988 0.116672 5.99998 0.116672V0.216672ZM6.94998 1.16667V2.16667H7.04998V1.16667H6.94998ZM17 2.11667H6.99998V2.21667H17V2.11667ZM16.95 1.16667V2.16667H17.05V1.16667H16.95ZM5.04998 5.16667V4.16667H4.94998V5.16667H5.04998ZM5.99998 6.11667C5.47531 6.11667 5.04998 5.69134 5.04998 5.16667H4.94998C4.94998 5.74657 5.42008 6.21667 5.99998 6.21667V6.11667ZM6.94998 5.16667C6.94998 5.69134 6.52465 6.11667 5.99998 6.11667V6.21667C6.57988 6.21667 7.04998 5.74657 7.04998 5.16667H6.94998ZM6.94998 4.16667V5.16667H7.04998V4.16667H6.94998ZM6.99998 4.21667H17V4.11667H6.99998V4.21667ZM16.95 4.16667V5.16667H17.05V4.16667H16.95ZM16.95 5.16667C16.95 5.74657 17.4201 6.21667 18 6.21667V6.11667C17.4753 6.11667 17.05 5.69134 17.05 5.16667H16.95ZM18 6.21667C18.5799 6.21667 19.05 5.74657 19.05 5.16667H18.95C18.95 5.69134 18.5246 6.11667 18 6.11667V6.21667ZM19.05 5.16667V4.16667H18.95V5.16667H19.05ZM19 4.21667H20V4.11667H19V4.21667ZM20 4.21667C21.077 4.21667 21.95 5.08971 21.95 6.16667H22.05C22.05 5.03448 21.1322 4.11667 20 4.11667V4.21667ZM21.95 6.16667V9.16667H22.05V6.16667H21.95ZM22 9.11667H2V9.21667H22V9.11667ZM2.05 9.16667V6.16667H1.95V9.16667H2.05ZM2.05 6.16667C2.05 5.08971 2.92304 4.21667 4 4.21667V4.11667C2.86782 4.11667 1.95 5.03448 1.95 6.16667H2.05ZM4 4.21667H4.99998V4.11667H4V4.21667ZM22.05 18.1667V11.1667H21.95V18.1667H22.05ZM20 20.2167C21.1322 20.2167 22.05 19.2989 22.05 18.1667H21.95C21.95 19.2436 21.077 20.1167 20 20.1167V20.2167ZM4 20.2167H20V20.1167H4V20.2167ZM1.95 18.1667C1.95 19.2988 2.86782 20.2167 4 20.2167V20.1167C2.92305 20.1167 2.05 19.2436 2.05 18.1667H1.95ZM1.95 11.1667V18.1667H2.05V11.1667H1.95ZM22 11.1167H2V11.2167H22V11.1167Z" fill="white" mask="url(#path-1-inside-1)"/>
</svg>
