<svg width="34" height="34" viewBox="0 0 34 34" fill="none" xmlns="http://www.w3.org/2000/svg">
<path d="M33.9817 16.9815C33.9817 26.3602 26.3788 33.963 17.0001 33.963C7.6215 33.963 0.0186157 26.3602 0.0186157 16.9815C0.0186157 7.60289 7.6215 0 17.0001 0C26.3788 0 33.9817 7.60289 33.9817 16.9815ZM3.41492 16.9815C3.41492 24.4844 9.49723 30.5667 17.0001 30.5667C24.503 30.5667 30.5854 24.4844 30.5854 16.9815C30.5854 9.47861 24.503 3.3963 17.0001 3.3963C9.49723 3.3963 3.41492 9.47861 3.41492 16.9815Z" fill="#EBEBEB"/>
<path d="M17.0166 1.71667C17.0176 0.778806 17.7807 0.0105486 18.7137 0.105194C21.4731 0.385082 24.1311 1.33775 26.4498 2.89069C29.2403 4.75968 31.414 7.4142 32.6959 10.5186C33.9778 13.6229 34.3104 17.0377 33.6516 20.3311C32.9927 23.6245 31.3721 26.6485 28.9946 29.0208C26.6171 31.3932 23.5896 33.0072 20.2948 33.6589C16.9999 34.3105 13.5859 33.9705 10.4843 32.6818C7.38277 31.3932 4.73299 29.2137 2.87008 26.4191C1.32219 24.097 0.375312 21.4369 0.101434 18.677C0.00882054 17.7437 0.778738 16.9824 1.7166 16.9834C2.65446 16.9844 3.40298 17.7485 3.5189 18.6791C3.77884 20.7661 4.52096 22.7725 5.69605 24.5353C7.18638 26.771 9.30621 28.5145 11.7875 29.5455C14.2687 30.5764 17 30.8484 19.6358 30.3271C22.2716 29.8058 24.6937 28.5145 26.5957 26.6167C28.4977 24.7188 29.7942 22.2996 30.3212 19.6649C30.8483 17.0302 30.5822 14.2984 29.5567 11.8149C28.5312 9.33137 26.7922 7.20775 24.5598 5.71256C22.7996 4.53363 20.7948 3.78714 18.7084 3.52266C17.778 3.40471 17.0156 2.65453 17.0166 1.71667Z" fill="#73CAFF"/>
</svg>
