<svg width="34" height="34" viewBox="0 0 34 34" fill="none" xmlns="http://www.w3.org/2000/svg">
<path d="M33.9871 16.9815C33.9871 26.3602 26.3843 33.963 17.0056 33.963C7.62698 33.963 0.0240936 26.3602 0.0240936 16.9815C0.0240936 7.60289 7.62698 0 17.0056 0C26.3843 0 33.9871 7.60289 33.9871 16.9815ZM3.76003 16.9815C3.76003 24.2969 9.69028 30.2271 17.0056 30.2271C24.321 30.2271 30.2512 24.2969 30.2512 16.9815C30.2512 9.66619 24.321 3.73594 17.0056 3.73594C9.69028 3.73594 3.76003 9.66619 3.76003 16.9815Z" fill="#EBEBEB"/>
<path d="M17.0165 1.88648C17.0177 0.854831 17.8574 0.00880625 18.8827 0.123178C20.9153 0.34992 22.8956 0.942623 24.726 1.87778C27.1124 3.09701 29.1765 4.86374 30.7493 7.0335C32.3221 9.20327 33.3591 11.7145 33.7754 14.3618C34.1917 17.0091 33.9756 19.7174 33.1447 22.2652C32.3138 24.813 30.8918 27.128 28.9947 29.0208C27.0977 30.9137 24.7797 32.3308 22.2301 33.1561C19.6805 33.9815 16.9717 34.1917 14.3253 33.7696C12.2955 33.4458 10.3466 32.7571 8.57105 31.7419C7.67546 31.2299 7.49594 30.0514 8.10324 29.2175C8.71054 28.3835 9.87426 28.2131 10.7853 28.6971C12.072 29.3807 13.4665 29.8494 14.9138 30.0803C16.978 30.4095 19.0908 30.2455 21.0795 29.6018C23.0682 28.958 24.8762 27.8527 26.3559 26.3763C27.8356 24.8998 28.9448 23.0941 29.5929 21.1069C30.241 19.1196 30.4096 17.0071 30.0848 14.9422C29.7601 12.8773 28.9513 10.9186 27.7245 9.22614C26.4977 7.53372 24.8877 6.15568 23.0263 5.20468C21.7212 4.53791 20.3185 4.09434 18.8762 3.88797C17.8549 3.74185 17.0154 2.91813 17.0165 1.88648Z" fill="#FF614B"/>
</svg>
