<svg width="343" height="1" viewBox="0 0 343 1" fill="none" xmlns="http://www.w3.org/2000/svg">
<path fill-rule="evenodd" clip-rule="evenodd" d="M0 0V1H3.06247V0H0ZM13.2708 0V1H19.3958L19.3958 0H13.2708ZM29.6042 0L29.6042 1H35.7292L35.7292 0H29.6042ZM45.9375 0L45.9375 1H52.0625L52.0625 0H45.9375ZM62.2708 0L62.2708 1H68.3958L68.3958 0H62.2708ZM78.6042 0L78.6042 1H84.7292L84.7292 0H78.6042ZM94.9375 0L94.9375 1H101.063L101.062 0H94.9375ZM111.271 0L111.271 1H117.396L117.396 0H111.271ZM127.604 0L127.604 1H133.729L133.729 0H127.604ZM143.938 0L143.938 1H150.063L150.062 0H143.938ZM160.271 0V1H166.396L166.396 0H160.271ZM176.604 0L176.604 1H182.729V0H176.604ZM192.937 0L192.938 1H199.062L199.062 0H192.937ZM209.271 0L209.271 1H215.396L215.396 0H209.271ZM225.604 0L225.604 1H231.729L231.729 0H225.604ZM241.937 0L241.938 1H248.062L248.062 0H241.937ZM258.271 0L258.271 1H264.396L264.396 0H258.271ZM274.604 0L274.604 1H280.729L280.729 0H274.604ZM290.938 0V1H297.062V0H290.938ZM307.271 0V1H313.396V0H307.271ZM323.604 0L323.604 1H329.729L329.729 0H323.604ZM339.938 0L339.938 1H343V0H339.938Z" fill="#DDDDDD"/>
</svg>
