<svg width="46" height="29" viewBox="0 0 46 29" fill="none" xmlns="http://www.w3.org/2000/svg">
<path d="M29.0834 25.5084H16.7V3.49509H29.0834V25.5084Z" fill="#FF5F00"/>
<path d="M17.4932 14.5C17.4932 10.0345 19.607 6.05675 22.8987 3.49334C20.4915 1.61884 17.4536 0.500016 14.152 0.500016C6.33589 0.500016 0 6.76793 0 14.5C0 22.2321 6.33589 28.5 14.152 28.5C17.4536 28.5 20.4915 27.3812 22.8987 25.5067C19.607 22.9433 17.4932 18.9655 17.4932 14.5Z" fill="#EB001B"/>
<path d="M45.7847 14.5C45.7847 22.2321 39.4488 28.5 31.6327 28.5C28.3311 28.5 25.2932 27.3812 22.8852 25.5067C26.1778 22.9433 28.2915 18.9655 28.2915 14.5C28.2915 10.0345 26.1778 6.05675 22.8852 3.49334C25.2932 1.61884 28.3311 0.500016 31.6327 0.500016C39.4488 0.500016 45.7847 6.76793 45.7847 14.5Z" fill="#F79E1B"/>
</svg>
