<svg width="20" height="20" viewBox="0 0 20 20" fill="none" xmlns="http://www.w3.org/2000/svg">
<circle cx="10" cy="10" r="10" fill="#2ACC6B"/>
<path d="M7.38423 10.2088L6.27185 9.09637H12.8948C13.9187 9.09637 14.752 9.9297 14.752 10.9536C14.752 11.9775 13.9187 12.8108 12.8948 12.8108H8.57226C8.17238 12.8108 7.84826 13.1349 7.84826 13.5348C7.84826 13.9347 8.17238 14.2588 8.57226 14.2588H12.8948C14.7174 14.2588 16.2 12.7762 16.2 10.9536C16.2 9.13094 14.7175 7.64837 12.8948 7.64837H6.27191L7.38429 6.53598C7.66705 6.25323 7.66705 5.79484 7.38429 5.51209C7.10145 5.22925 6.64314 5.22937 6.36036 5.51207L6.36034 5.51209L4.01207 7.86048C3.72931 8.14323 3.72931 8.60162 4.01207 8.88437L6.36034 11.2326C6.50172 11.374 6.68734 11.4447 6.87229 11.4447C7.05728 11.4447 7.24286 11.3739 7.38419 11.2327L7.38423 11.2326C7.66699 10.9499 7.66699 10.4915 7.38423 10.2088Z" fill="white" stroke="white" stroke-width="0.4"/>
</svg>
