<svg width="82" height="16" viewBox="0 0 82 16" fill="none" xmlns="http://www.w3.org/2000/svg">
<path d="M27.8828 5.78125H26.1953V10.5703C26.1953 11.8516 25.4609 12.6953 24.2422 12.6953C23.0781 12.6953 22.4844 12.0234 22.4844 10.7734V5.78125H20.7969V11.1016C20.7969 12.9844 21.8906 14.1484 23.6797 14.1484C24.9375 14.1484 25.7734 13.5938 26.2266 12.6094H26.2656V14H27.8828V5.78125ZM30.5547 14H32.2422V9.21094C32.2422 7.9375 33.0078 7.09375 34.1953 7.09375C35.3672 7.09375 35.9453 7.77344 35.9453 9.00781V14H37.6406V8.67969C37.6406 6.79688 36.6016 5.64062 34.7891 5.64062C33.5234 5.64062 32.6484 6.21875 32.2031 7.15625H32.1641V5.78125H30.5547V14ZM41.1719 4.45312C41.7109 4.45312 42.1406 4.01562 42.1406 3.48438C42.1406 2.94531 41.7109 2.51562 41.1719 2.51562C40.6328 2.51562 40.1953 2.94531 40.1953 3.48438C40.1953 4.01562 40.6328 4.45312 41.1719 4.45312ZM40.3281 14H42.0156V5.78125H40.3281V14ZM49.1172 14.1406C51.2031 14.1406 52.5469 12.5 52.5469 9.89062C52.5469 7.28906 51.1953 5.64844 49.125 5.64844C47.9609 5.64844 47.0234 6.22656 46.5312 7.17969H46.4922V2.72656H44.8047V14H46.4453V12.6016H46.4766C46.9844 13.5547 47.9141 14.1406 49.1172 14.1406ZM48.6641 7.07031C49.9922 7.07031 50.8125 8.16406 50.8125 9.89062C50.8125 11.6328 49.9922 12.7109 48.6641 12.7109C47.3828 12.7109 46.4844 11.6016 46.4844 9.89062C46.4844 8.19531 47.3828 7.07031 48.6641 7.07031ZM57.2734 14.1406C58.3516 14.1406 59.3906 13.5625 59.8672 12.6484H59.9062V14H61.5234V8.33594C61.5234 6.6875 60.25 5.63281 58.2578 5.63281C56.2266 5.63281 54.9609 6.72656 54.8672 8.21094H56.4609C56.6094 7.47656 57.2188 7.00781 58.1953 7.00781C59.2266 7.00781 59.8438 7.55469 59.8438 8.46875V9.10156L57.5938 9.23438C55.6406 9.34375 54.5391 10.2266 54.5391 11.6641C54.5391 13.1406 55.6641 14.1406 57.2734 14.1406ZM57.7422 12.8047C56.8359 12.8047 56.2422 12.3359 56.2422 11.6172C56.2422 10.9141 56.8125 10.4688 57.8203 10.3984L59.8438 10.2734V10.9219C59.8438 11.9922 58.9219 12.8047 57.7422 12.8047ZM64.1641 14H65.8516V9.21094C65.8516 7.9375 66.6172 7.09375 67.8047 7.09375C68.9766 7.09375 69.5547 7.77344 69.5547 9.00781V14H71.25V8.67969C71.25 6.79688 70.2109 5.64062 68.3984 5.64062C67.1328 5.64062 66.2578 6.21875 65.8125 7.15625H65.7734V5.78125H64.1641V14ZM75.6484 9.30469H75.6328V2.72656H73.9453V14H75.6328V11.0469L76.3359 10.3516L79.125 14H81.0859L77.5469 9.32031L80.9531 5.78125H78.9688L75.6484 9.30469Z" fill="#ADADAD"/>
<path fill-rule="evenodd" clip-rule="evenodd" d="M7 16C2.27907 16 0 13.3373 0 9.42563V0H3.37209V9.33137C3.37209 11.5228 4.60465 13.0309 7 13.0309C9.39535 13.0309 10.6512 11.5228 10.6512 9.33137V6.66667H14V9.44919C14 13.3137 11.7209 16 7 16ZM13.8488 3.11111H10.5V0H13.8488V3.11111Z" fill="#FF8227"/>
</svg>
