<svg width="60" height="19" viewBox="0 0 60 19" fill="none" xmlns="http://www.w3.org/2000/svg">
<path fill-rule="evenodd" clip-rule="evenodd" d="M20.8784 17.8145L23.8677 0.356812H28.649L25.6577 17.8145H20.8784H20.8784Z" fill="#2C5DBB"/>
<path fill-rule="evenodd" clip-rule="evenodd" d="M42.9313 0.733217C41.984 0.379539 40.4997 0 38.6461 0C33.9217 0 30.5937 2.36766 30.5655 5.76113C30.5388 8.26969 32.9412 9.66889 34.7548 10.504C36.6159 11.3596 37.2416 11.9054 37.2328 12.6695C37.2209 13.8395 35.7465 14.3742 34.3723 14.3742C32.4585 14.3742 31.4418 14.1097 29.8716 13.4579L29.2556 13.1805L28.5844 17.0885C29.7013 17.5759 31.7663 17.9982 33.9104 18.02C38.9364 18.02 42.1989 15.6793 42.2362 12.0555C42.2543 10.0697 40.9804 8.55836 38.222 7.31237C36.5508 6.50487 35.5272 5.96579 35.5382 5.14822C35.5382 4.42258 36.4044 3.64647 38.2761 3.64647C39.8398 3.62239 40.9724 3.9618 41.8547 4.3153L42.283 4.51684L42.9313 0.733039" fill="#2C5DBB"/>
<path fill-rule="evenodd" clip-rule="evenodd" d="M55.2352 0.356624H55.2353L55.2352 0.356445L55.2352 0.356624ZM55.2352 0.356624H51.5408C50.3962 0.356624 49.5398 0.667585 49.0371 1.80433L41.9363 17.803H46.9569C46.9569 17.803 47.7779 15.6518 47.9636 15.1796C48.2215 15.1796 49.4358 15.1813 50.7228 15.183C52.1738 15.185 53.7173 15.1871 54.0869 15.1871C54.2298 15.7981 54.6684 17.8029 54.6684 17.8029H59.105L55.2352 0.356624ZM49.3733 11.6292C49.3733 11.6292 49.3733 11.6292 49.3732 11.6293V11.6292H49.3733ZM49.3733 11.6292H53.3421C53.1508 10.7552 52.2353 6.58823 52.2353 6.58823L51.9122 5.08291C51.7861 5.42526 51.611 5.8772 51.4766 6.22425C51.3537 6.54167 51.2647 6.77135 51.2783 6.74919C51.2783 6.74919 49.7688 10.6231 49.3733 11.6292Z" fill="#2C5DBB"/>
<path fill-rule="evenodd" clip-rule="evenodd" d="M16.82 0.356812L12.139 12.2616L11.6402 9.84243C10.7687 7.0535 8.0537 4.03199 5.01849 2.51919L9.29859 17.7867L14.3574 17.7809L21.8846 0.35699H16.8201" fill="#2C5DBB"/>
<path fill-rule="evenodd" clip-rule="evenodd" d="M7.77086 0.356812H0.0612006L0 0.720031C5.99819 2.16506 9.967 5.65716 11.6145 9.85305L9.93815 1.83065C9.64872 0.725293 8.80912 0.395425 7.77077 0.356901" fill="#F2AE14"/>
</svg>
