<svg width="80" height="32" viewBox="0 0 80 32" fill="none" xmlns="http://www.w3.org/2000/svg">
<path d="M0 5.89216V30H80V7.13921L78.5032 9.108L73.4707 5.19422L67.4979 15.3577L60.8736 9.00637L54.7752 11.8854L48.7013 4.8427L43.6132 7.77374L36.8337 12.3856L30.7634 6.68001L25.5154 10.6953L18.416 14.4982L12.3512 4.72522L6.85101 9.04133L0 5.89216Z" fill="url(#paint0_linear)"/>
<path fill-rule="evenodd" clip-rule="evenodd" d="M12.9735 1.09998L19.27 11.2465L24.1527 8.63102L30.8991 3.4693L37.0532 9.25365L42.2794 5.69847L49.2107 1.70559L55.3916 8.8723L61.3265 6.07052L66.9291 11.4423L72.7435 1.54843L80 7.19179L78.5032 9.16059L73.4707 5.24681L67.4979 15.4103L60.8736 9.05896L54.7752 11.938L48.7013 4.89529L43.6132 7.82633L36.8337 12.4382L30.7634 6.7326L25.5154 10.7479L18.416 14.5508L12.3512 4.77781L6.85101 9.09392L0 5.94474L1.00118 3.67476L6.4819 6.19405L12.9735 1.09998Z" fill="#F0523C"/>
<defs>
<linearGradient id="paint0_linear" x1="38" y1="-157.5" x2="38" y2="34.5" gradientUnits="userSpaceOnUse">
<stop stop-color="#FF5943"/>
<stop offset="1" stop-color="#FF5943" stop-opacity="0"/>
</linearGradient>
</defs>
</svg>
