<svg width="81" height="32" viewBox="0 0 81 32" fill="none" xmlns="http://www.w3.org/2000/svg">
<path fill-rule="evenodd" clip-rule="evenodd" d="M18.8323 0.782959L25.9085 6.7939L30.9858 10.589L36.9902 5.07584L43.7062 9.53946L48.7382 12.3718L54.746 5.56592L60.7798 8.34963L67.5094 2.04646L73.1764 15.2162L77.9878 8.50095L80 9.91122L72.6543 20.1637L66.6497 6.20919L61.2843 11.2345L55.4085 8.52368L49.2947 15.4496L42.4302 11.5857L37.263 8.15151L31.1749 13.7415L24.3797 8.66246L19.5965 4.59935L13.5201 16.0904L7.53859 11.505L2.13315 20.783L0 19.5594L6.79539 7.89571L12.6839 12.4098L18.8323 0.782959Z" fill="#2ACC6B"/>
<path d="M0 19.5593V31.6488H80V9.91111L72.6543 20.1635L66.6497 6.20908L61.2843 11.2344L55.4085 8.52357L49.2947 15.4495L42.4302 11.5856L37.263 8.1514L31.1749 13.7414L24.3797 8.66235L19.5965 4.59924L13.5201 16.0902L7.53859 11.5049L2.13315 20.7828L0 19.5593Z" fill="url(#paint0_linear)"/>
<defs>
<linearGradient id="paint0_linear" x1="40" y1="5" x2="40" y2="32" gradientUnits="userSpaceOnUse">
<stop stop-color="#2ACC6B" stop-opacity="0.16"/>
<stop offset="1" stop-color="#2ACC6B" stop-opacity="0.01"/>
</linearGradient>
</defs>
</svg>
