<svg width="81" height="36" viewBox="0 0 81 36" fill="none" xmlns="http://www.w3.org/2000/svg">
<path fill-rule="evenodd" clip-rule="evenodd" d="M24.3427 1.84726L31.0257 7.24634L36.6643 3.62663L43.4552 1.98755L49.0598 6.51165L55.1784 0.520508L61.4124 3.97559L67.7765 0.783946L73.9981 6.24614L80 8.35101L79.2059 10.712L72.7512 8.44832L67.4133 3.762L61.3695 6.79301L55.5998 3.59525L49.2286 9.83373L42.8706 4.70151L37.6494 5.96171L30.8744 10.311L25.6373 6.07998L18.9714 25.8965L12.0511 7.84852L6.8399 11.1771L0 8.58057L0.853058 6.24111L6.54535 8.402L13.3506 4.05524L18.8236 17.9106L24.3427 1.84726Z" fill="#F0523C"/>
<path d="M0 7.10342V36H80V6.96051L79.2059 8.43026L72.7512 7.02109L67.4133 4.1038L61.3695 5.99064L55.5998 4L49.2286 7.88352L42.8706 4.68866L37.6494 5.47315L30.8744 8.18062L25.6373 5.54677L18.9714 17.8828L12.0511 6.64771L6.8399 8.71979L0 7.10342Z" fill="url(#paint0_linear)"/>
<defs>
<linearGradient id="paint0_linear" x1="38" y1="-72.6281" x2="38" y2="21.6823" gradientUnits="userSpaceOnUse">
<stop stop-color="#FF5943"/>
<stop offset="1" stop-color="#FF5943" stop-opacity="0"/>
</linearGradient>
</defs>
</svg>
